<svg xmlns="http://www.w3.org/2000/svg" viewBox="0 0 44 32" width="44" height="32"><defs><pattern id="weft" width="44" height="3" patternUnits="userSpaceOnUse"><path d="M0 1.5H44" stroke="#000" stroke-opacity=".24" stroke-width=".8"/></pattern></defs><rect y="4" width="44" height="24" fill="url(#weft)"/><path d="M0 0H44V2H0ZM0 30H44V32H0ZM0 3H44V3.7H0ZM0 28.3H44V29H0Z"/><path d="M22 9.5V6H27.5V9M22 22.5V26H16.5V23M13.5 16H9.5V11.5H12.5M30.5 16H34.5V20.5H31.5" fill="none" stroke="#000" stroke-width="1.8" stroke-linecap="square"/><path d="M5 7h2v2H5ZM37 23h2v2h-2Z"/></svg>
