<svg xmlns="http://www.w3.org/2000/svg" viewBox="0 0 40 28" width="40" height="28"><defs><pattern id="weft" width="40" height="3" patternUnits="userSpaceOnUse"><path d="M0 1.5H40" stroke="#000" stroke-opacity=".24" stroke-width=".8"/></pattern></defs><rect y="5" width="40" height="18" fill="url(#weft)"/><path d="M0 0H40V1.8H0ZM0 26.2H40V28H0Z"/><path d="M0 4.2L2.5 6.4L5 4.2L7.5 6.4L10 4.2L12.5 6.4L15 4.2L17.5 6.4L20 4.2L22.5 6.4L25 4.2L27.5 6.4L30 4.2L32.5 6.4L35 4.2L37.5 6.4L40 4.2M0 23.8L2.5 21.6L5 23.8L7.5 21.6L10 23.8L12.5 21.6L15 23.8L17.5 21.6L20 23.8L22.5 21.6L25 23.8L27.5 21.6L30 23.8L32.5 21.6L35 23.8L37.5 21.6L40 23.8" fill="none" stroke="#000" stroke-width="1.1"/><path fill-rule="evenodd" d="M20 7.2L30.5 14L20 20.8L9.5 14ZM20 10.2L25.8 14L20 17.8L14.2 14Z"/><path d="M0 13.3H9.8V14.7H0ZM30.2 13.3H40V14.7H30.2Z"/></svg>
