<svg xmlns="http://www.w3.org/2000/svg" viewBox="0 0 480 360" width="480" height="360"><style>.l,.h{fill:none;stroke:#4a2f1b;stroke-linecap:round;stroke-linejoin:round;vector-effect:non-scaling-stroke}.l{stroke-width:1.5}.h{stroke-width:1}.d{stroke-dasharray:3 4}.f{stroke:#4a2f1b;stroke-width:1.5;stroke-linejoin:round;vector-effect:non-scaling-stroke}.c{fill:#fbf6ee}.p{fill:#fffaf2}.s{fill:#e7dac6}.w{fill:#b97440}.wd{fill:#8f532c}.b{fill:#6f4d35}.a{fill:#e76e43}.y{fill:#eed079}.g{fill:#9aa585}.r{fill:#b86a3f}.k{fill:#4a2f1b}.cu{fill:#8e867c}.in{fill:#f6d58a}.glow{fill:#eed079;opacity:.22}.steam{fill:none;stroke:#8c7b66;stroke-width:1;stroke-linecap:round;vector-effect:non-scaling-stroke}.lichen{fill:none;stroke:#8f9a7a;stroke-width:4;stroke-linecap:round;vector-effect:non-scaling-stroke}.dusk{fill:#f6d9b0}.bank{fill:#b5b8ae}.river1{fill:#efd6b4}.river2{fill:#e4c6a0}.glint{fill:none;stroke:#fffaf2;stroke-width:1.5;stroke-linecap:round;vector-effect:non-scaling-stroke}.water{fill:none;stroke:#8fa7ad;stroke-width:1.5;stroke-linecap:round;stroke-dasharray:6 7;vector-effect:non-scaling-stroke}@media (prefers-color-scheme:dark){.l,.h,.f{stroke:#dccdb6}.c{fill:#2c1e13}.p{fill:#3a2b1f}.s{fill:#34281d}.w{fill:#7d4526}.wd{fill:#5e3219}.dusk{fill:#3a2618}.bank{fill:#2e2721}.river1{fill:#251b14}.river2{fill:#1f1711}.glint{stroke:#e76e43}.in{fill:#d9a64a}.b{fill:#8a6444}.k{fill:#dccdb6}.cu{fill:#5d5750}.g{fill:#6f7a60}.r{fill:#8f5334}.glow{opacity:.2}.steam{stroke:#a8987f}.water{stroke:#7f969c}}</style><rect class="c" width="480" height="200"/><path class="dusk" d="M0 70H480V200H0Z"/><path class="a" d="M330 196A44 44 0 0 1 418 196Z"/><path class="bank" d="M0 196C30 188 60 192 90 186C130 180 170 190 210 184C260 178 300 188 350 182C400 178 440 186 480 182V202H0Z"/><path class="g f" d="M24 192C24 180 40 176 46 184C50 172 68 174 68 188Z"/><path class="g f" d="M110 188C112 176 126 174 132 182C138 172 154 176 152 188Z"/><path class="g f" d="M440 186C442 174 456 172 462 180C468 170 484 174 482 186Z"/><path class="river1" d="M0 200H480V244H0Z"/><path class="river2" d="M0 244H480V300H0Z"/><path class="glint" d="M344 212H392M360 226H408M326 258H360M380 270H404M70 216H104M150 262H190M250 236H276"/><path class="s f" d="M34 168H54V252H34ZM144 168H164V252H144ZM254 168H274V252H254ZM364 168H384V252H364ZM474 168H494V252H474Z"/><path class="water" d="M24 254H64M134 254H174M244 254H284M354 254H394M464 254H480"/><rect class="s f" x="-6" y="150" width="492" height="18"/><path class="h" d="M0 156H480M0 162H480"/><path class="a f" d="M204 126Q204 122 208 122H268Q276 122 278 130L280 146Q280 150 276 150H204Z"/><rect class="in f" x="212" y="129" width="11" height="9" rx="2"/><rect class="in f" x="227" y="129" width="11" height="9" rx="2"/><rect class="in f" x="242" y="129" width="11" height="9" rx="2"/><rect class="in f" x="257" y="129" width="11" height="9" rx="2"/><path class="b f" d="M270 128H275L277 140H270Z"/><circle class="b f" cx="218" cy="150" r="5"/><circle class="b f" cx="264" cy="150" r="5"/><path class="h" d="M0 138H480M-4 138V150M12 138V150M28 138V150M44 138V150M60 138V150M76 138V150M92 138V150M108 138V150M124 138V150M140 138V150M156 138V150M172 138V150M188 138V150M204 138V150M220 138V150M236 138V150M252 138V150M268 138V150M284 138V150M300 138V150M316 138V150M332 138V150M348 138V150M364 138V150M380 138V150M396 138V150M412 138V150M428 138V150M444 138V150M460 138V150M476 138V150"/><path class="s" d="M0 300H480V360H0Z"/><path class="l" d="M0 300C80 296 160 302 240 298C320 294 400 300 480 296"/><path class="w f" d="M70 268H146L138 280H80Z"/><path class="l" d="M86 268V258H118V268"/><path class="h" d="M146 268L156 264"/><path class="water" d="M64 286H152"/><path class="l" d="M36 300V284M42 300V280M48 300V287M424 298V282M430 298V278M436 298V285"/></svg>