<svg xmlns="http://www.w3.org/2000/svg" viewBox="0 0 360 420" width="360" height="420"><style>.l,.h{fill:none;stroke:#4a2f1b;stroke-linecap:round;stroke-linejoin:round;vector-effect:non-scaling-stroke}.l{stroke-width:1.5}.h{stroke-width:1}.d{stroke-dasharray:3 4}.f{stroke:#4a2f1b;stroke-width:1.5;stroke-linejoin:round;vector-effect:non-scaling-stroke}.c{fill:#f7eedd}.p{fill:#fffaf2}.s{fill:#e7dac6}.w{fill:#d2ab80}.wd{fill:#b98a5e}.b{fill:#5b3a22}.a{fill:#e8952b}.y{fill:#f4c95d}.g{fill:#9aa585}.r{fill:#b86a3f}.k{fill:#4a2f1b}.cu{fill:#a0673f}.in{fill:#f8dea2}.glow{fill:#fdb833;opacity:.22}.steam{fill:none;stroke:#8c7b66;stroke-width:1;stroke-linecap:round;vector-effect:non-scaling-stroke}.lichen{fill:none;stroke:#8f9a7a;stroke-width:4;stroke-linecap:round;vector-effect:non-scaling-stroke}.dusk{fill:#f6d9b0}.bank{fill:#b5b8ae}.river1{fill:#efd6b4}.river2{fill:#e4c6a0}.glint{fill:none;stroke:#fffaf2;stroke-width:1.5;stroke-linecap:round;vector-effect:non-scaling-stroke}.water{fill:none;stroke:#8fa7ad;stroke-width:1.5;stroke-linecap:round;stroke-dasharray:6 7;vector-effect:non-scaling-stroke}@media (prefers-color-scheme:dark){.l,.h,.f{stroke:#dccdb6}.c{fill:#2b1f15}.p{fill:#3a2b1f}.s{fill:#34281d}.w{fill:#6f5038}.wd{fill:#5b412d}.dusk{fill:#3a2618}.bank{fill:#2e2721}.river1{fill:#251b14}.river2{fill:#1f1711}.glint{stroke:#e8952b}.in{fill:#e3ad4c}.b{fill:#8a6444}.k{fill:#dccdb6}.cu{fill:#7a4f31}.g{fill:#6f7a60}.r{fill:#8f5334}.glow{opacity:.2}.steam{stroke:#a8987f}.water{stroke:#7f969c}}</style><rect class="in" x="104" y="108" width="132" height="262" rx="2"/><path class="glow" d="M104 108H236V370H104Z"/><path class="h" d="M104 300H236"/><path class="l" d="M96 370V100H244V370"/><rect class="wd f" x="96" y="76" width="148" height="24" rx="2"/><path class="h" d="M120 88H220"/><path class="s f" d="M80 370H260L268 384H72Z"/><path class="wd f" d="M104 108 150 124V352L104 370Z"/><path class="h" d="M114 128 140 136V200L114 194ZM114 222 140 228V330L114 336Z"/><circle class="k" cx="142" cy="246" r="3"/><path class="glow" d="M104 384H236L290 420H60Z"/><path class="l" d="M270 150V166"/><path class="a f" d="M262 166H278L274 186H266Z"/><circle class="glow" cx="270" cy="190" r="14"/><path class="r f" d="M270 370 276 330H316L322 370Z"/><path class="g f" d="M296 330C286 306 268 300 262 282C280 284 294 300 296 330C298 300 312 280 330 276C328 298 310 310 296 330Z"/><path class="h" d="M296 330C296 304 300 286 306 268"/></svg>